<?xml version="1.0" encoding="utf-8"?>
<!-- Generator: Adobe Illustrator 16.0.0, SVG Export Plug-In . SVG Version: 6.00 Build 0)  -->
<!DOCTYPE svg PUBLIC "-//W3C//DTD SVG 1.1//EN" "http://www.w3.org/Graphics/SVG/1.1/DTD/svg11.dtd">
<svg version="1.1"
	 id="svg2" xmlns:inkscape="http://www.inkscape.org/namespaces/inkscape" xmlns:rdf="http://www.w3.org/1999/02/22-rdf-syntax-ns#" xmlns:sodipodi="http://sodipodi.sourceforge.net/DTD/sodipodi-0.dtd" xmlns:cc="http://creativecommons.org/ns#" xmlns:dc="http://purl.org/dc/elements/1.1/" xmlns:svg="http://www.w3.org/2000/svg" xmlns:ns1="http://sozi.baierouge.fr" sodipodi:docbase="C:\" inkscape:version="0.46" inkscape:output_extension="org.inkscape.output.svg.inkscape" sodipodi:version="0.32" sodipodi:docname="construction_hammer_jon__01.svg"
	 xmlns="http://www.w3.org/2000/svg" xmlns:xlink="http://www.w3.org/1999/xlink" x="0px" y="0px" width="1000px" height="1000px"
	 viewBox="0 0 1000 1000" enable-background="new 0 0 1000 1000" xml:space="preserve">
<sodipodi:namedview  inkscape:cy="331.32776" inkscape:cx="301.99451" borderopacity="1.0" showgrid="false" inkscape:zoom="1" pagecolor="#ffffff" bordercolor="#666666" id="base" inkscape:document-units="px" inkscape:pageopacity="0.0" inkscape:window-height="778" inkscape:window-y="0" inkscape:window-x="0" inkscape:current-layer="g8836" inkscape:window-width="1280" inkscape:pageshadow="2">
	</sodipodi:namedview>
<g id="layer1" transform="translate(-51.529 -14.9)" inkscape:label="Layer 1" inkscape:groupmode="layer">
	<g id="g8836" transform="translate(-320.25 2.0671)" inkscape:label="Layer 1" inkscape:groupmode="layer">
		<g id="g2784" transform="matrix(1.3476 0 0 1.3476 -170.99 -28.717)">
			
				<linearGradient id="path1942_1_" gradientUnits="userSpaceOnUse" x1="788.7296" y1="609.5662" x2="821.3196" y2="592.8561" gradientTransform="matrix(2.7246 0.6485 0.6485 -2.7246 -2014.0007 1246.7295)">
				<stop  offset="0" style="stop-color:#7A7A7A"/>
				<stop  offset="0.087" style="stop-color:#4B4B4B"/>
				<stop  offset="1" style="stop-color:#7A7A7A"/>
			</linearGradient>
			<path id="path1942" fill="url(#path1942_1_)" stroke="#000000" d="M965.333,714.621c-2.765-3.128-10.416-13.337-16.983-22.69
				c-6.593-9.356-26.518-36.721-44.292-60.81c-17.76-24.1-45.646-62.44-61.961-85.207c-16.325-22.781-46.114-63.177-66.233-89.78
				c-20.094-26.6-50.558-68.301-67.676-92.663c-17.107-24.347-45.039-62.539-62.049-84.845
				c-17.021-22.321-33.079-44.033-35.685-48.267c-11.262-18.217-17.82-24.687-27.346-26.958c-5.027-1.198-11.689-1.676-14.814-1.062
				c-3.124,0.616-17.277,10.02-31.449,20.894c-22.5,17.264-26.19,20.932-29.057,28.881c-3.23,8.969-10.452,19.025-21.835,30.426
				c-5.447,5.455-6.302,5.616-13.591,2.608c-18.048-7.467-36.4-28.817-40.892-47.578c-1.716-7.13-1.782-10.864-0.198-10.486
				c1.807,0.433,2.002-0.149,0.735-2.203c-1.253-2.066,0.06-3.868,4.985-6.838c3.68-2.217,10.091-6.822,14.249-10.234
				c4.173-3.422,9.183-5.833,11.134-5.362c2.471,0.59,15.51-11.116,42.479-38.14c64.74-64.867,106.312-89.939,161.015-97.118
				c25.634-3.366,77.702-2.738,109.702,1.34c11.75,1.487,12.7,1.929,11.382,5.28c-1.023,2.602-7.12,4.51-21.184,6.615
				c-48.265,7.244-68.89,13.549-98.458,30.098c-15.104,8.451-19.699,14.488-23.804,31.275c-1.792,7.359-0.957,9.475,11.704,29.143
				c12.119,18.834,42.096,55.47,104.444,127.674c10.721,12.424,40.923,48.935,67.124,81.144
				c26.216,32.199,64.759,78.305,85.651,102.456c59.479,68.701,67.775,77.216,112.75,115.726
				c18.556,15.877,34.648,30.31,35.789,32.08c1.719,2.649,0.323,6.553-8.058,22.59c-5.568,10.647-12.108,21.691-14.532,24.513
				c-15.364,17.824-43.921,37.199-61.205,41.5C970.785,720.206,970.02,719.947,965.333,714.621L965.333,714.621z"/>
			
				<radialGradient id="path1940_1_" cx="782.1199" cy="660.0675" r="171.8373" gradientTransform="matrix(0.796 -0.6053 0.6053 0.796 -85.3848 550.4274)" gradientUnits="userSpaceOnUse">
				<stop  offset="0" style="stop-color:#5B5B5B"/>
				<stop  offset="1" style="stop-color:#B4B4B4"/>
			</radialGradient>
			<path id="path1940" opacity="0.8796" fill="url(#path1940_1_)" enable-background="new    " d="M964.797,712.482
				c-3.08-4.32-10.25-14.555-15.93-22.741c-5.691-8.2-16.18-22.71-23.299-32.28c-7.123-9.545-14.406-19.42-16.157-21.931
				c-1.75-2.511-10.715-14.748-19.924-27.184c-9.219-12.451-18.32-25.016-20.222-27.935c-1.916-2.908-6.699-9.616-10.643-14.893
				c-3.945-5.276-16.231-22.149-27.319-37.476c-22.046-30.482-33.599-46.002-65.333-87.759
				c-11.547-15.183-22.49-29.78-24.325-32.432c-1.845-2.666-7.33-10.296-12.199-16.938c-4.88-6.656-10.681-15.091-12.888-18.711
				c-2.218-3.634-7.87-11.841-12.564-18.253c-4.709-6.401-14.022-19.304-20.705-28.66c-6.694-9.37-24.992-33.788-40.676-54.261
				c-15.695-20.487-29.419-39.699-30.513-42.691c-1.079-3.004-5.44-9.694-9.679-14.878c-6.508-7.961-9.307-9.816-18.041-11.884
				c-14.132-3.365-20.512-1.259-38.333,12.649c-8.432,6.581-21.088,16.16-28.125,21.287c-12.742,9.286-12.834,9.315-16.175,4.503
				c-1.844-2.664-9.388-10.85-16.753-18.202c-7.365-7.352-13.701-14.309-14.078-15.461c-1.385-4.153,71.398-76.83,88.341-88.215
				c17.212-11.569,49.076-30.364,60.383-35.616c25.27-11.738,64.705-16.241,116.941-13.359c51.83,2.855,56.275,5.322,19.54,10.835
				c-32.389,4.857-50.847,10.006-71.992,20.082c-28.506,13.582-34.48,18.343-39.34,31.326c-5.706,15.249-5.059,20.853,4.114,35.307
				c11.361,17.899,14.492,21.776,78.455,96.642c31.529,36.912,76.061,90.174,98.944,118.38
				c48.743,60.086,113.111,135.005,143.342,166.832c11.734,12.38,37.293,36.12,56.792,52.759
				c19.483,16.651,35.704,30.713,36.043,31.25c0.633,1.041-11.674,23.067-20.244,36.223c-8.964,13.775-31.312,32.613-49.249,41.526
				c-9.362,4.641-18.272,8.803-19.803,9.24C971.613,720.008,967.929,716.899,964.797,712.482L964.797,712.482z M465.069,279.115
				c-13.174-8.562-31.405-30.231-27.47-32.652c0.853-0.523,5.049,3.709,9.319,9.413c10.169,13.58,17.101,19.317,27.071,22.441
				c4.915,1.53,7.95,3.547,7.585,5.07C480.804,286.622,473.815,284.816,465.069,279.115L465.069,279.115z"/>
			<path id="path1938" sodipodi:nodetypes="cccccccccccccccccccccccccc" fill="#424242" d="M969.328,719.337
				c-0.015-0.558,0.059-1.865,0.164-2.923c0.091-1.046-4.144-7.99-9.421-15.436c-15.651-22.044-50.265-69.501-67.651-92.75
				c-8.916-11.932-18.344-24.838-20.947-28.679c-13.23-19.519-73.977-102.443-98.483-134.396
				c-28.746-37.528-82.42-113.963-91.92-127.111c-9.502-13.123-26.27-35.5-37.29-49.72c-11.005-14.231-25.789-32.864-27.263-35.518
				c-2.536-4.651-2.395-5.002,4.164-9.863c3.738-2.768,36.966-20.576,38.124-22.73c2.291-4.312,7.908-5.537,10.554-2.297
				c1.019,1.249,25.914,30.427,55.345,64.819c29.404,34.389,73.557,87.212,98.101,117.362
				c87.017,106.943,155.158,183.266,185.54,207.818c8.866,7.173,22.849,19.161,31.04,26.642
				c8.216,7.485,16.706,14.193,18.893,14.917c2.347,0.784,3.541,2.651,2.898,4.617c-0.57,1.822-1.605,5.155-2.299,7.411
				c-0.683,2.27-1.925,3.418-2.767,2.581c-0.826-0.849-4.46,4.12-8.048,11.032c-11.245,21.626-26.832,37.367-50.683,51.21
				c-8.257,4.779-16.739,8.843-18.855,9.02c-2.128,0.163-3.555,1.157-3.207,2.211c0.348,1.055-0.854,2.106-2.67,2.349
				C970.832,720.148,969.342,719.894,969.328,719.337L969.328,719.337z"/>
			
				<linearGradient id="path1936_1_" gradientUnits="userSpaceOnUse" x1="995.8563" y1="764.2074" x2="565.5393" y2="202.4046" gradientTransform="matrix(0.796 -0.6053 0.6053 0.796 -85.3848 550.4274)">
				<stop  offset="0" style="stop-color:#3E3E3E;stop-opacity:0.8367"/>
				<stop  offset="0.5" style="stop-color:#505050;stop-opacity:0.9082"/>
				<stop  offset="1" style="stop-color:#3E3E3E;stop-opacity:0.8061"/>
			</linearGradient>
			
				<path id="path1936" sodipodi:nodetypes="ccccccccccccccccccccccccccccccccccccccccccccccccccccccccccccccccccccccccccccccccccccccccccccccccccccccccccccc" opacity="0.8848" fill="url(#path1936_1_)" enable-background="new    " d="
				M968.914,718.582c-0.31-0.946,1.217-1.449,3.402-1.087c4.728,0.746,4.91,1.791,0.41,2.394
				C970.952,720.125,969.235,719.543,968.914,718.582z M966.521,697.438c-4.835-6.237-11.647-15.972-15.138-21.638
				c-10.048-16.233-22.099-33.214-23.887-33.651c-0.914-0.215-4.397-5.364-7.765-11.466c-3.357-6.088-6.917-11.247-7.892-11.482
				c-0.975-0.236-5.084-5.548-9.117-11.779c-4.031-6.258-8.44-11.635-9.792-11.948c-1.363-0.328-2.891-2.008-3.431-3.735
				c-0.515-1.723-5.707-9.416-11.521-17.091c-5.8-7.686-12.68-17.391-15.288-21.568c-8.83-14.181-18.003-26.781-19.841-27.224
				c-1.015-0.229-2.025-1.916-2.27-3.731c-0.254-1.831-1.254-3.503-2.229-3.739c-0.989-0.225-6.858-8.358-13.029-18.058
				c-6.185-9.687-12.18-17.838-13.319-18.11c-1.138-0.27-4.644-4.403-7.793-9.171c-10.915-16.505-20.457-29.62-21.836-29.937
				c-1.638-0.391-4.062-3.458-14.025-17.754c-4.17-5.992-8.211-11.035-8.998-11.232c-0.776-0.184-4.173-5.308-7.54-11.41
				c-3.37-6.077-6.891-11.243-7.83-11.462c-1.737-0.43-5.443-5.751-23.823-34.314c-5.695-8.833-11.536-17.171-12.989-18.543
				c-3.676-3.457-16.613-20.948-26.103-35.308c-4.391-6.642-12.433-17.216-17.908-23.487c-5.461-6.284-13.983-17.31-18.921-24.491
				c-4.95-7.195-10.453-14.401-12.244-16.04c-1.847-1.71-2.785-5.635-2.198-9.197c0.853-5.128,3.885-8.047,17.162-16.599
				c8.874-5.702,16.34-11.222,16.583-12.248c0.838-3.502,5.904-0.579,10.261,5.929c5.141,7.686,36.009,43.85,41.004,48.055
				l7.546,8.995l4.076,5.927c2.241,3.276,6.731,8.432,9.959,11.48c3.241,3.037,7.867,8.341,10.253,11.779
				c2.401,3.426,11.084,13.557,19.296,22.501c8.2,8.929,16.744,18.848,18.973,22.018c2.215,3.181,6.557,8.201,9.627,11.163
				c3.071,2.962,5.455,5.947,5.282,6.647c-0.394,1.665,25.43,33.706,27.595,34.22c2.24,0.525,7.621,11.007,6.579,12.777
				c-0.454,0.778,0.464,1.717,2.041,2.086c1.588,0.384,11.794,11.472,22.686,24.629c10.904,13.172,20.646,24.157,21.661,24.385
				c2.363,0.567,7.855,10.987,6.753,12.827c-0.454,0.778,0.688,1.772,2.552,2.22c1.852,0.433,8.526,6.817,14.819,14.195
				c6.294,7.378,12.177,13.59,13.066,13.801c0.888,0.212,4.434,4.426,7.871,9.363c3.447,4.95,12.109,15.414,19.253,23.282
				c7.158,7.858,13.096,16.234,13.199,18.612c0.153,3.339,0.75,3.795,2.591,2.031c1.841-1.764,5.007,0.604,14.046,10.577
				c6.4,7.07,15.161,15.481,19.465,18.688l10.152,8.445l13.084,10.627c11.77,9.556,14.567,13.204,26.355,23.771
				c6.492,5.817,12.091,10.995,12.464,11.485c1.125,1.509-16.088,31.675-22.124,38.745c-3.136,3.681-7.625,7.344-9.98,8.135
				c-2.354,0.791-4.236,3.04-4.194,5.009c0.082,3.576-20.417,18.688-24.133,17.807c-1-0.239-3.481,1.193-5.495,3.179
				c-2.383,2.336-4.943,2.918-7.314,1.652c-2.013-1.061-3.852-1.118-4.107-0.107C977.956,711.159,975.529,709.072,966.521,697.438
				L966.521,697.438z M958.293,659.085c0.394-1.665-0.641-3.355-2.32-3.738c-3.15-0.765-4.573,1.431-2.794,4.308
				C954.943,662.542,957.54,662.25,958.293,659.085L958.293,659.085z M902.4,597.729c0.267-1.112-0.431-2.241-1.544-2.509
				c-1.113-0.267-2.241,0.432-2.509,1.545c-0.254,1.102,0.431,2.241,1.544,2.509C901.007,599.516,902.132,598.843,902.4,597.729z
				 M868.158,535.096c0.409-1.675-0.641-3.354-2.305-3.749c-3.151-0.765-4.573,1.431-2.809,4.318
				C864.822,538.543,867.418,538.25,868.158,535.096L868.158,535.096z M801.44,451.915c-0.42-1.272-1.62-2.52-2.671-2.766
				c-1.052-0.246-2.115,0.449-2.382,1.562c-0.268,1.113,0.931,2.361,2.671,2.765C800.795,453.906,801.861,453.186,801.44,451.915z
				 M880.722,464.378c0.267-1.113-0.483-2.248-1.657-2.537c-1.178-0.264-1.791,0.544-1.37,1.815
				c0.421,1.272,1.156,2.417,1.657,2.537C879.841,466.299,880.454,465.491,880.722,464.378z M711.319,327.916
				c-0.421-1.271-1.62-2.519-2.672-2.765c-1.051-0.246-2.129,0.459-2.382,1.562c-0.267,1.113,0.932,2.361,2.657,2.776
				C710.674,329.907,711.74,329.187,711.319,327.916L711.319,327.916z M774.424,336.538c0.267-1.113-0.482-2.248-1.656-2.537
				c-1.189-0.278-1.803,0.53-1.371,1.816c0.421,1.271,1.171,2.406,1.657,2.537C773.543,338.459,774.156,337.652,774.424,336.538z
				 M644.348,245.746c0.267-1.113-0.421-2.227-1.534-2.494c-1.113-0.268-2.241,0.431-2.509,1.544
				c-0.267,1.113,0.432,2.241,1.534,2.494C642.952,247.558,644.08,246.859,644.348,245.746z"/>
		</g>
	</g>
</g>
</svg>
